<svg width="32" height="32" viewBox="0 0 32 32" fill="none" xmlns="http://www.w3.org/2000/svg">
<g clip-path="url(#clip0_5_42)">
<path d="M32 0H0V32H32V0Z" fill="white"/>
<g clip-path="url(#clip1_5_42)">
<g clip-path="url(#clip2_5_42)">
<path d="M0 0H32V32H0V0Z" fill="#F6F0FF"/>
<path d="M14.0567 12.1707L17.2387 8.98871L16.4434 8.19338C14.852 6.60204 13.2614 6.60204 11.67 8.19338L10.8747 8.98871L14.0567 12.1707Z" fill="#8700B8"/>
<path d="M17.2387 16.944C15.1197 19.0676 12.9984 21.189 10.8747 23.308L11.67 24.1033C12.466 24.8986 14.852 25.694 16.4434 24.1033L22.8074 17.7393C23.6027 16.944 23.6027 15.3526 22.8074 14.5573L18.83 10.58L15.6474 13.762L17.2387 15.3526C17.6367 15.7506 17.5907 16.5826 17.2387 16.944Z" fill="#31007A"/>
</g>
</g>
</g>
<defs>
<clipPath id="clip0_5_42">
<rect width="32" height="32" fill="white"/>
</clipPath>
<clipPath id="clip1_5_42">
<rect width="32" height="32" fill="white"/>
</clipPath>
<clipPath id="clip2_5_42">
<rect width="32" height="32" fill="white"/>
</clipPath>
</defs>
</svg>
