<svg width="16" height="16" viewBox="0 0 16 16" fill="none" xmlns="http://www.w3.org/2000/svg">
<g clip-path="url(#clip0_6_66)">
<path d="M16 0H0V16H16V0Z" fill="white"/>
<g clip-path="url(#clip1_6_66)">
<g clip-path="url(#clip2_6_66)">
<path d="M0 0H16V16H0V0Z" fill="#F6F0FF"/>
<path d="M7.02832 6.08529L8.61932 4.49429L8.22165 4.09663C7.42598 3.30096 6.63065 3.30096 5.83498 4.09663L5.43732 4.49429L7.02832 6.08529Z" fill="#8700B8"/>
<path d="M8.61932 8.47204C7.55983 9.53388 6.49916 10.5946 5.43732 11.654L5.83498 12.0517C6.23298 12.4494 7.42598 12.847 8.22165 12.0517L11.4036 8.86971C11.8013 8.47204 11.8013 7.67637 11.4036 7.27871L9.41498 5.29004L7.82365 6.88104L8.61932 7.67637C8.81832 7.87537 8.79532 8.29137 8.61932 8.47204Z" fill="#31007A"/>
</g>
</g>
</g>
<defs>
<clipPath id="clip0_6_66">
<rect width="16" height="16" fill="white"/>
</clipPath>
<clipPath id="clip1_6_66">
<rect width="16" height="16" fill="white"/>
</clipPath>
<clipPath id="clip2_6_66">
<rect width="16" height="16" fill="white"/>
</clipPath>
</defs>
</svg>
